<svg width="400" height="400" viewBox="0 0 400 400" fill="none" xmlns="http://www.w3.org/2000/svg">
<rect width="400" height="400" fill="#0B1528"/>
<path d="M156.8 262.1H243.2V236.45H188.39V212.42H235.1V186.23H188.39V163.28H243.2V137.9H156.8V262.1Z" fill="white"/>
<path d="M308 200C308 225.92 298.82 249.68 283.7 268.31L302.87 287.48C322.85 263.99 335 233.48 335 200C335 167.06 323.12 136.82 303.68 113.6L284.51 132.77C299.09 151.13 308 174.62 308 200Z" fill="#03D47C"/>
<path d="M268.31 283.7C249.68 298.82 225.92 308 200 308C174.62 308 151.13 299.09 132.77 284.51L113.6 303.68C137.09 323.39 167.33 335 200 335C233.48 335 263.99 322.85 287.48 302.87L268.31 283.7Z" fill="#0185FF"/>
<path d="M117.11 269.39C101.45 250.49 92 226.46 92 200C92 140.33 140.33 92 200 92C226.46 92 250.49 101.45 269.39 117.11L288.56 97.94C264.8 77.42 233.75 65 200 65C125.48 65 65 125.48 65 200C65 233.75 77.42 264.8 97.94 288.56L117.11 269.39Z" fill="#FED607"/>
</svg>
